<svg id="Layer_1" data-name="Layer 1" xmlns="http://www.w3.org/2000/svg" viewBox="0 0 34.14 33.64"><defs><style>.cls-1{fill:#57ccff;}.cls-2{fill:#03a6ff;}</style></defs><title>logo mark</title><path class="cls-1" d="M28.36,9.43c-2.42,3.15-6,.83-6,.83A8.46,8.46,0,0,1,11.74,23.39l0,0a4.28,4.28,0,0,0-6,.79,4.12,4.12,0,0,0-.77,3.12A4.6,4.6,0,0,0,6.7,30.21l.5.39a17,17,0,0,0,23.67-4.33c4.91-7.13,4.68-16.62-3.3-22.76C27.57,3.51,30.76,6.3,28.36,9.43Z"/><path class="cls-2" d="M5.78,24.21c2.42-3.15,6-.83,6-.83A8.46,8.46,0,0,1,22.41,10.25l0,0a4.28,4.28,0,0,0,6-.79,4.12,4.12,0,0,0,.77-3.12,4.6,4.6,0,0,0-1.75-2.92L26.94,3A17,17,0,0,0,3.27,7.37C-1.63,14.5-1.41,24,6.58,30.12,6.58,30.12,3.38,27.34,5.78,24.21Z"/></svg>